<svg width="240" height="240" viewBox="0 0 240 240" xmlns="http://www.w3.org/2000/svg"><defs><linearGradient id="bg" x1="0" y1="0" x2="1" y2="1"><stop offset="0" stop-color="#19c4d6"/><stop offset="1" stop-color="#067a86"/></linearGradient></defs><rect width="240" height="240" rx="54" fill="url(#bg)"/><g transform="translate(30.00,171.00) scale(0.15000,-0.15000)"><path d="M309 -10Q236 -10 181.0 17.5Q126 45 96.0 94.5Q66 144 66 210V340Q66 407 96.0 456.0Q126 505 181.0 532.5Q236 560 309 560Q418 560 483.0 505.0Q548 450 552 355H406Q403 390 376.5 410.0Q350 430 309 430Q264 430 240.0 407.0Q216 384 216 340V210Q216 167 240.0 143.5Q264 120 309 120Q350 120 376.5 139.5Q403 159 406 195H552Q548 100 483.0 45.0Q418 -10 309 -10Z" fill="#0a0e12"/></g><g transform="translate(120.00,171.00) scale(0.15000,-0.15000)"><path d="M60 -165V-25H540V-165Z" fill="#0a0e12"/></g></svg>
